<?xml version="1.0" standalone="no"?>
<!DOCTYPE svg PUBLIC "-//W3C//DTD SVG 20010904//EN"
 "http://www.w3.org/TR/2001/REC-SVG-20010904/DTD/svg10.dtd">
<svg version="1.0" xmlns="http://www.w3.org/2000/svg"
 width="460.000000pt" height="460.000000pt" viewBox="0 0 460.000000 460.000000"
 preserveAspectRatio="xMidYMid meet">
<metadata>
Created by potrace 1.14, written by Peter Selinger 2001-2017
</metadata>
<g transform="translate(0.000000,460.000000) scale(0.100000,-0.100000)"
fill="#000000" stroke="none">
<path d="M867 2698 c-47 -51 -104 -115 -128 -142 -24 -27 -62 -68 -84 -92 -22
-23 -69 -75 -105 -115 -36 -40 -81 -89 -100 -110 -81 -85 -120 -132 -115 -139
2 -4 21 -6 42 -3 44 4 54 14 313 303 41 45 96 106 123 133 26 28 47 51 47 53
0 2 28 33 63 70 34 37 74 81 90 97 15 17 27 32 27 33 0 2 -20 4 -44 4 -42 0
-46 -3 -129 -92z"/>
<path d="M1137 2757 c-18 -19 -59 -64 -92 -100 -33 -37 -83 -92 -112 -122 -28
-30 -49 -55 -47 -55 2 0 -13 -17 -33 -38 -21 -21 -72 -75 -113 -121 -41 -46
-101 -111 -132 -144 -32 -34 -58 -65 -58 -69 0 -10 11 -10 120 -10 l84 1 69
73 c37 40 90 98 116 128 27 30 64 71 82 90 19 20 56 60 83 90 58 65 209 232
249 274 15 16 27 31 27 32 0 2 -48 4 -106 4 l-106 0 -31 -33z"/>
<path d="M3390 2532 c-115 -20 -166 -225 -89 -357 38 -64 136 -88 207 -51 38
19 81 83 85 126 2 17 6 32 9 35 10 10 -13 131 -33 171 -29 58 -103 90 -179 76z
m98 -45 c45 -36 59 -224 22 -296 -38 -75 -122 -73 -157 3 -24 55 -24 216 1
263 24 48 93 63 134 30z"/>
<path d="M3786 2528 c-72 -27 -106 -99 -103 -218 4 -139 48 -194 162 -205 55
-5 125 43 152 105 13 32 20 151 11 190 -11 42 -44 92 -73 110 -40 25 -110 33
-149 18z m92 -29 c47 -16 65 -64 65 -178 -1 -106 -10 -142 -45 -165 -54 -35
-105 -21 -135 37 -17 34 -23 214 -7 238 5 8 9 16 9 19 1 16 24 40 45 49 33 13
32 13 68 0z"/>
<path d="M1442 2338 c1 -106 -1 -200 -3 -208 -3 -11 5 -15 31 -15 l35 0 1 75
c2 99 1 94 23 119 22 25 27 21 67 -55 79 -149 75 -144 111 -144 18 0 33 3 32
8 0 4 -13 30 -30 57 -16 28 -41 75 -56 105 -15 30 -30 57 -33 60 -3 3 -11 17
-17 31 -12 28 -16 21 66 114 32 37 34 45 9 45 -17 0 -35 -16 -66 -59 -65 -88
-99 -124 -104 -109 -3 7 -3 48 -1 91 l3 77 -34 0 -34 0 0 -192z"/>
<path d="M1820 2319 l0 -210 32 3 32 3 1 208 0 207 -32 0 -32 0 -1 -211z"/>
<path d="M2005 2323 l0 -208 30 0 30 0 2 88 c1 80 10 119 19 92 2 -5 31 -46
64 -90 33 -44 60 -83 60 -87 0 -5 16 -8 35 -8 45 0 44 14 -5 70 -21 24 -37 46
-35 48 2 2 -10 18 -26 34 -16 17 -29 34 -29 38 0 4 15 11 33 14 63 12 104 78
85 139 -17 56 -66 77 -175 77 l-89 0 1 -207z m162 160 c36 -17 47 -40 38 -82
-9 -43 -37 -62 -91 -64 l-47 -2 1 65 c0 104 -1 99 35 98 17 0 46 -7 64 -15z"/>
<path d="M2380 2523 c-1 -29 -1 -390 -1 -400 1 -8 14 -13 31 -13 l30 0 0 88
c0 81 2 90 25 112 l24 23 13 -29 c7 -16 15 -31 18 -34 3 -3 23 -40 45 -82 38
-73 42 -78 73 -78 40 0 38 10 -11 94 -42 72 -66 115 -68 124 -1 4 -8 16 -15
27 -21 30 -17 46 26 95 57 65 60 69 60 75 0 3 -10 5 -22 5 -16 0 -33 -15 -56
-48 -18 -26 -50 -67 -72 -92 l-39 -45 -1 93 0 92 -30 0 c-16 0 -30 -3 -30 -7z"/>
<path d="M2704 2508 c19 -66 40 -143 62 -228 14 -52 29 -112 35 -132 9 -34 13
-38 40 -38 25 0 30 3 25 16 -4 9 -3 22 2 28 10 12 45 122 47 146 1 8 12 44 25
79 l24 64 18 -69 c10 -38 30 -107 44 -154 15 -47 28 -91 30 -98 2 -8 15 -12
31 -10 21 2 28 9 29 28 1 14 12 54 24 90 12 36 24 76 26 90 5 27 18 71 40 135
19 56 18 77 -3 73 -13 -2 -26 -34 -51 -123 -37 -134 -44 -164 -45 -182 0 -7
-3 -13 -6 -13 -7 0 -44 112 -47 140 -1 8 -14 52 -29 98 -26 77 -29 82 -56 82
-23 0 -29 -4 -29 -22 0 -13 -10 -50 -21 -83 -11 -33 -22 -67 -24 -75 -7 -28
-23 -75 -35 -105 l-12 -30 -20 65 c-10 36 -21 72 -23 80 -2 8 -8 38 -15 65 -6
28 -14 57 -18 65 -3 8 -6 20 -6 25 -1 6 -16 11 -35 13 -31 3 -33 2 -27 -20z"/>
<path d="M4114 2319 l-1 -211 76 3 c163 5 215 59 214 221 -1 143 -59 198 -209
198 l-80 0 0 -211z m183 160 c27 -23 43 -81 43 -160 0 -126 -29 -168 -116
-169 l-51 0 2 173 c1 94 3 173 3 175 5 7 106 -9 119 -19z"/>
<path d="M1126 2345 c-2 -5 -3 -26 -2 -45 1 -33 3 -35 40 -38 46 -4 53 4 48
56 -4 38 -5 39 -43 38 -21 0 -40 -5 -43 -11z"/>
<path d="M1281 2337 c-4 -10 -5 -31 -3 -46 3 -25 8 -28 48 -30 46 -2 47 -2 47
54 0 41 -1 42 -44 42 -31 0 -42 -5 -48 -20z"/>
<path d="M1127 2195 c-2 -5 -3 -26 -3 -45 1 -34 2 -35 41 -35 36 0 40 3 45 30
10 51 3 62 -41 61 -21 0 -40 -5 -42 -11z"/>
<path d="M1283 2196 c-12 -19 -8 -68 7 -75 17 -9 62 -7 77 2 9 5 11 44 4 78
-2 9 -82 5 -88 -5z"/>
<path d="M1295 2028 c-120 -10 -223 -28 -335 -58 -25 -7 -52 -14 -60 -15 -8
-1 -22 -5 -30 -8 -70 -28 -335 -40 -441 -21 -41 8 -85 16 -98 19 -13 2 -29 9
-35 15 -5 5 -16 10 -23 10 -8 0 -33 9 -55 20 -40 19 -70 18 -36 -1 9 -5 23
-15 30 -22 57 -54 191 -110 315 -132 72 -13 235 -14 308 -2 17 3 48 8 70 11
22 4 85 17 139 30 55 13 108 23 118 21 10 -2 18 -1 18 3 0 4 12 9 28 10 15 1
54 7 87 13 72 14 423 19 515 8 56 -7 98 -13 217 -34 13 -2 28 -7 34 -11 8 -4
9 -3 5 4 -14 23 -179 87 -271 106 -16 4 -41 9 -55 12 -116 26 -292 34 -445 22z"/>
<path d="M2179 1956 c-4 -3 -5 -152 -2 -158 2 -4 9 -5 16 -2 8 3 12 18 11 39
-3 30 0 35 20 35 56 0 74 53 26 77 -32 16 -37 10 -10 -17 17 -17 19 -24 9 -36
-6 -8 -19 -14 -29 -14 -15 0 -18 7 -15 38 2 28 -1 39 -11 39 -8 0 -15 -1 -15
-1z"/>
<path d="M2362 1951 c-8 -4 -11 -33 -9 -81 2 -78 18 -98 27 -35 l5 37 18 -31
c17 -29 57 -60 57 -45 0 4 -11 22 -25 41 l-26 33 24 11 c18 8 23 17 19 35 -2
13 -8 27 -13 30 -16 10 -65 13 -77 5z m65 -28 c6 -16 -14 -43 -33 -43 -9 0
-14 12 -14 34 0 30 3 33 21 29 11 -3 23 -12 26 -20z"/>
<path d="M2570 1953 c-23 -9 -35 -34 -36 -81 -1 -34 3 -46 23 -62 14 -11 30
-17 36 -13 6 4 1 10 -11 14 -12 5 -22 12 -23 16 -7 61 -4 87 10 105 15 17 21
19 39 9 19 -10 22 -20 22 -66 0 -30 -4 -55 -10 -55 -5 0 -10 -7 -10 -15 0 -23
24 -7 39 26 31 72 -16 144 -79 122z"/>
<path d="M2753 1951 c-5 -3 -8 -35 -7 -71 2 -89 3 -92 14 -85 6 4 9 20 6 36
-5 31 -3 33 45 43 56 12 40 78 -19 81 -17 1 -35 -1 -39 -4z m65 -44 c-2 -16
-10 -22 -28 -22 -20 0 -25 5 -25 25 0 31 13 42 38 29 11 -6 17 -19 15 -32z"/>
<path d="M2924 1947 c-3 -8 -4 -45 -2 -83 l3 -69 43 -1 c23 0 42 3 42 8 0 4
-15 8 -33 8 -29 0 -32 3 -33 30 -1 25 2 30 22 30 12 0 25 4 28 8 3 4 -7 8 -22
8 -25 -1 -27 2 -25 37 2 36 -12 51 -23 24z"/>
<path d="M2964 1953 c4 -4 16 -8 28 -10 28 -4 18 6 -12 12 -12 2 -20 1 -16 -2z"/>
<path d="M3100 1873 c0 -57 3 -82 11 -78 6 4 8 22 6 41 -6 45 7 43 38 -6 17
-27 30 -38 41 -33 9 3 12 9 7 12 -4 3 -17 16 -27 29 -19 22 -19 23 2 43 40 37
22 73 -37 75 l-41 1 0 -84z m63 68 c5 -1 7 -13 5 -28 -2 -20 -9 -29 -25 -31
-22 -3 -25 1 -25 33 0 29 2 33 20 30 9 -2 21 -4 25 -4z"/>
<path d="M3260 1952 c0 -1 10 -6 23 -11 19 -7 22 -16 23 -70 2 -79 3 -83 12
-77 4 2 7 33 6 68 -1 35 3 70 7 79 7 13 2 16 -31 15 -22 0 -40 -2 -40 -4z"/>
<path d="M3447 1953 c-4 -3 -7 -41 -7 -84 0 -59 3 -77 13 -74 8 4 12 29 11 80
-1 76 -5 91 -17 78z"/>
<path d="M3562 1950 c-5 -3 -8 -39 -7 -80 l1 -75 39 0 c55 -1 68 9 20 15 -34
4 -40 8 -40 30 0 20 6 26 28 28 15 2 27 7 27 12 0 5 -11 7 -25 4 -25 -4 -30 3
-25 36 3 20 19 29 43 24 11 -2 17 0 13 4 -8 8 -63 10 -74 2z"/>
<path d="M3739 1944 c-27 -32 -18 -53 34 -79 30 -14 33 -41 7 -55 -16 -9 -25
-8 -36 1 -8 6 -17 9 -20 6 -3 -3 3 -10 13 -15 18 -10 72 -5 74 7 7 45 4 61
-13 66 -10 4 -18 11 -18 16 0 5 -7 9 -15 9 -17 0 -21 35 -5 45 5 3 19 1 31 -6
17 -8 20 -8 17 2 -6 19 -53 22 -69 3z"/>
<path d="M3976 1952 c-9 -15 -11 -140 -2 -149 9 -9 76 -10 76 -1 0 4 -13 8
-30 8 l-29 0 -3 78 c-2 47 -6 72 -12 64z"/>
<path d="M4093 1946 c-4 -5 3 -7 15 -4 20 6 21 2 24 -71 3 -89 23 -100 24 -13
1 74 8 94 31 85 11 -4 15 -2 10 3 -11 12 -97 13 -104 0z"/>
<path d="M4269 1933 c-5 -144 -6 -136 31 -136 32 1 55 9 67 23 16 20 16 92 1
112 -15 18 -58 34 -58 21 0 -5 10 -13 23 -18 17 -8 22 -19 23 -50 2 -52 -11
-75 -41 -75 -23 0 -24 2 -22 72 1 50 -2 73 -10 75 -8 3 -13 -6 -14 -24z"/>
<path d="M4457 1807 c-3 -7 -2 -19 3 -26 5 -9 9 -8 14 5 4 9 3 21 -2 26 -6 6
-12 4 -15 -5z"/>
</g>
</svg>
